<?xml version="1.0" standalone="no"?><!DOCTYPE svg PUBLIC "-//W3C//DTD SVG 1.1//EN" "http://www.w3.org/Graphics/SVG/1.1/DTD/svg11.dtd"><svg t="1775382391699" class="icon" viewBox="0 0 1024 1024" version="1.1" xmlns="http://www.w3.org/2000/svg" p-id="1739" xmlns:xlink="http://www.w3.org/1999/xlink" width="200" height="200"><path d="M107.3337 168.117089A58.633771 58.633771 0 0 0 101.618321 193.364031V926.290076c0 32.378463 26.247491 58.625954 58.625954 58.625955h703.51145c32.378463 0 58.625954-26.247491 58.625954-58.625955V194.561303a58.625954 58.625954 0 0 0-6.459277-26.751675c-44.168794-86.128041-81.238636-128.412987-104.500112-128.412987-25.541374 0-69.645028 48.555318-124.847226 146.257425l-5.60855 9.928631H355.408774l-5.73883-9.197761C288.355013 88.10569 239.958636 39.396641 211.066463 39.396641c-25.869679 0-62.391043 42.08171-103.73146 128.720448zM811.42229 0.312672c44.187033 0 88.375369 50.405293 139.277028 149.661638A97.709924 97.709924 0 0 1 961.465649 194.561303V926.290076c0 53.963237-43.746687 97.709924-97.709924 97.709924H160.244275c-53.963237 0-97.709924-43.746687-97.709924-97.709924V193.361425a97.719043 97.719043 0 0 1 9.524764-42.075196C119.692051 51.46056 164.081018 0.312672 211.066463 0.312672c46.736611 0 100.048448 52.325618 165.97659 156.186056h281.170077C718.070229 52.554911 766.874382 0.312672 811.42229 0.312672zM346.080733 749.109415c-45.078148 51.401934-86.742962 64.8377-115.133557 25.934819-26.993995-36.986463-7.556234-74.758514 46.506015-107.651583 37.003399-22.514972 93.131888-45.439023 168.670778-69.014473-38.317924 68.112936-71.594015 118.294148-100.041933 150.731237z m88.398819-390.826667c-9.054453-74.396336 8.81083-127.319939 60.152835-123.247389 70.328997 5.579888 63.559654 98.912407-2.209547 277.100132-1.096957 2.126168-2.188702 4.240611-3.279145 6.343328-27.634972-45.424692-48.025079-105.633547-54.665446-160.196071z m294.816896 198.676845c53.542433 6.130972 80.552061 32.920427 66.735878 75.420336-17.535674 53.952814-72.5177 59.698158-139.269211 29.75202-42.447796-19.04171-87.765659-51.622107-123.166616-87.611929 88.099176-16.518188 153.059338-22.443318 195.699949-17.560427z m-213.958677 21.127491l1.451318-0.342636c5.693232-1.116499 11.295267-2.191308 16.806107-3.224428-10.507074-10.682952-20.141272-21.665547-28.569079-32.683318-5.51084-7.205781-10.818443-15.0343-15.88112-23.357883-14.991308 28.928651-29.328611 55.559165-43.021028 79.900662 21.496183-6.709415 44.566148-13.470941 69.213802-20.292397z m157.422412 48.385954c48.525354 21.768468 78.022025 18.686046 86.101985-6.175267 4.653598-14.31255-1.920326-20.831756-34.012173-24.508254-23.927206-2.739786-57.307522-1.500824-99.936407 3.771603 15.924112 10.672529 32.170015 19.878107 47.846595 26.910615z m-181.219338-352.476173c-15.245354-1.208997-24.688041 26.768611-18.263939 79.56454 2.283807 18.765517 6.409771 38.359613 12.001384 57.657974 26.798575-90.750372 25.81887-135.67088 6.263858-137.222514zM297.767735 700.780784c-37.210545 22.642646-45.024733 37.828071-35.249832 51.22345 8.376997 11.478962 23.150738 6.714626 54.178199-28.664183 11.816387-13.472244 24.708885-30.52458 38.62799-51.063206-23.11426 9.71888-42.307094 19.226707-57.556357 28.505242z m57.557659-28.505242c29.380723-43.353242 63.336875-102.250178 101.389028-175.847898 11.744733-31.893822 21.201751-60.280509 28.563868-85.208265 11.684804 40.334656 29.766351 79.379542 50.793527 106.873812 22.380784 29.263471 54.879104 58.704122 88.841771 81.467929-29.025059 3.589211-62.337628 9.047939-99.87257 16.393119-70.051501 19.406494-126.678962 38.226728-169.715624 56.322606zM297.038168 821.076031h57.844275c33.221374 0 49.832061 14.070229 49.832061 42.406106 0 28.531298-16.806107 42.796947-50.222901 42.796947h-36.152672v54.326718H297.038168v-139.529771z m21.300763 18.174045v48.854962h34.784733c10.552672 0 18.174046-1.954198 23.059542-5.862595 4.690076-3.908397 7.230534-10.161832 7.230534-18.760306 0-8.598473-2.540458-14.851908-7.425954-18.369465-4.885496-3.908397-12.50687-5.862595-22.864122-5.862596h-34.784733z m145.196947-18.174045h50.80916c22.473282 0 39.474809 6.253435 51.2 18.955725 10.943511 11.725191 16.415267 28.726718 16.415267 50.80916 0 21.887023-5.667176 38.88855-16.806107 51.00458-11.725191 12.50687-28.726718 18.760305-51.2 18.760306h-50.41832v-139.529771z m21.300763 18.174045v103.18168h25.209161c17.587786 0 30.680916-4.299237 38.888549-12.70229 8.012214-8.403053 12.116031-21.300763 12.116031-38.88855 0-17.978626-4.103817-30.876336-11.920611-39.083969-8.207634-8.403053-21.105344-12.50687-38.69313-12.506871h-25.6z m157.899237-18.174045v139.529771h21.300763v-62.534352h69.374046v-18.174045H664.036641v-40.647329h73.477863v-18.174045h-94.778626z" fill="#13227a" p-id="1740"></path><path d="M218.870229 117.56458l24.943389 49.885476c4.82687 9.65374 0.913262 21.391959-8.739175 26.218829a19.541985 19.541985 0 0 1-8.740479 2.063634h-14.92747c-10.79369 0-19.541985-8.749598-19.541985-19.541985a19.541985 19.541985 0 0 1 2.062331-8.740478L218.870229 117.56458zM805.129771 117.56458l24.943389 49.885476c4.82687 9.65374 0.913262 21.391959-8.739175 26.218829a19.541985 19.541985 0 0 1-8.740479 2.063634h-14.92747c-10.79369 0-19.541985-8.749598-19.541985-19.541985a19.541985 19.541985 0 0 1 2.062331-8.740478L805.129771 117.56458z" fill="#13227a" p-id="1741"></path></svg>